<?xml version="1.0" standalone="no"?>
<!DOCTYPE svg PUBLIC "-//W3C//DTD SVG 20010904//EN"
 "http://www.w3.org/TR/2001/REC-SVG-20010904/DTD/svg10.dtd">
<svg version="1.0" xmlns="http://www.w3.org/2000/svg"
 width="512.000000pt" height="512.000000pt" viewBox="0 0 512.000000 512.000000"
 preserveAspectRatio="xMidYMid meet">
<metadata>
Created by potrace 1.14, written by Peter Selinger 2001-2017
</metadata>
<g transform="translate(0.000000,512.000000) scale(0.100000,-0.100000)"
fill="#000000" stroke="none">
<path d="M2279 5006 c-2 -2 -38 -7 -79 -10 -83 -7 -121 -12 -195 -27 -27 -5
-59 -11 -70 -13 -11 -2 -49 -12 -85 -21 -36 -9 -69 -18 -75 -19 -28 -6 -178
-58 -235 -81 -327 -135 -578 -302 -825 -550 -384 -385 -615 -854 -696 -1410
-20 -135 -17 -513 4 -650 18 -114 23 -146 32 -180 2 -11 10 -42 16 -70 14 -67
71 -244 104 -325 204 -503 568 -927 1033 -1201 265 -157 604 -276 892 -314 19
-2 62 -8 95 -12 123 -16 487 -9 607 12 13 2 50 9 83 14 343 57 767 241 1030
448 17 13 35 27 40 31 29 20 147 122 198 171 l57 55 398 1 c378 0 399 1 431
20 19 11 43 33 55 48 l21 28 3 1582 c1 870 0 1596 -3 1614 -7 39 -48 91 -84
105 -17 7 -166 12 -423 12 l-398 2 -42 40 c-91 87 -126 118 -204 179 -315 248
-710 424 -1094 489 -14 2 -41 7 -60 10 -19 3 -53 9 -75 11 -49 7 -450 16 -456
11z"/>
</g>
</svg>
